<?xml version="1.0" standalone="no"?>
<!DOCTYPE svg PUBLIC "-//W3C//DTD SVG 20010904//EN"
 "http://www.w3.org/TR/2001/REC-SVG-20010904/DTD/svg10.dtd">
<svg version="1.0" xmlns="http://www.w3.org/2000/svg"
 width="98.000000pt" height="98.000000pt" viewBox="0 0 98.000000 98.000000"
 preserveAspectRatio="xMidYMid meet">
<metadata>
Created by potrace 1.11, written by Peter Selinger 2001-2013
</metadata>
<g transform="translate(0.000000,98.000000) scale(0.100000,-0.100000)"
fill="#000000" stroke="none">
<path d="M113 913 c-9 -3 -13 -35 -13 -108 l0 -104 33 -6 c17 -3 72 -4 122 -3
l90 3 3 -327 2 -328 135 0 135 0 0 325 0 325 94 0 c51 0 108 3 125 6 l32 7 -3
106 -3 106 -370 2 c-203 0 -376 -1 -382 -4z"/>
</g>
</svg>
